<?xml version="1.0" standalone="no"?>
<!DOCTYPE svg PUBLIC "-//W3C//DTD SVG 20010904//EN"
 "http://www.w3.org/TR/2001/REC-SVG-20010904/DTD/svg10.dtd">
<svg version="1.0" xmlns="http://www.w3.org/2000/svg"
 width="512.000000pt" height="512.000000pt" viewBox="0 0 512.000000 512.000000"
 preserveAspectRatio="xMidYMid meet">
<metadata>
Created by potrace 1.14, written by Peter Selinger 2001-2017
</metadata>
<g transform="translate(0.000000,512.000000) scale(0.100000,-0.100000)"
fill="#000000" stroke="none">
<path d="M560 4289 c-11 -7 -7 -8 15 -4 28 5 29 5 6 -5 -14 -6 -32 -8 -40 -5
-8 3 -12 3 -8 -1 4 -4 -18 -20 -48 -36 -31 -15 -70 -45 -88 -65 -18 -20 -54
-60 -80 -88 -60 -62 -135 -167 -143 -200 -3 -14 -15 -42 -25 -62 -18 -36 -19
-78 -19 -1151 0 -1099 0 -1114 20 -1139 11 -14 20 -35 20 -47 0 -11 11 -65 25
-119 35 -140 94 -231 267 -404 62 -62 117 -113 121 -113 5 0 24 -13 42 -29 31
-27 96 -51 218 -80 26 -6 85 -11 131 -11 57 0 115 -8 180 -25 l96 -25 1428 0
c1491 0 1582 2 1582 41 0 10 17 22 48 33 26 10 70 28 97 40 28 13 68 32 90 42
58 26 125 75 125 91 0 7 4 13 10 13 5 0 22 19 37 43 15 23 42 67 61 97 19 30
43 64 52 75 10 11 21 31 24 45 4 14 11 34 15 45 44 110 53 142 58 223 4 62 2
100 -7 123 -9 25 -14 127 -17 364 -6 506 -20 921 -33 1011 -7 52 -9 137 -5
245 11 276 6 421 -17 538 -12 58 -23 136 -25 174 -3 37 -9 67 -14 67 -6 0 -22
14 -36 30 -13 17 -30 30 -37 30 -7 0 -21 9 -31 20 -10 11 -41 35 -69 54 -28
19 -64 46 -79 60 -15 14 -36 26 -46 26 -10 0 -38 11 -63 24 -24 13 -69 27 -99
31 -30 4 -63 14 -74 21 -17 12 -304 14 -1835 14 -1196 0 -1820 -4 -1830 -11z"/>
</g>
</svg>
